<?xml version="1.0"?>
<svg xmlns="http://www.w3.org/2000/svg" id="Layer_1" enable-background="new 0 0 511.987 511.987" height="512px" viewBox="0 0 511.987 511.987" width="512px" class=""><g><g><g><path d="m463.223 243.116-58.537-69.175c-9.768-11.543-17.186-18.715-26.114-22.21 5.203-6.671 9.081-13.999 12.453-20.372l1.004-1.893c9.353-17.584 9.409-38.614.164-60.817-4.023-9.666-7.988-18.355-11.821-26.758-2.054-4.5-4.177-9.154-6.318-13.976-4.631-10.423-9.279-19.448-19.297-24.326-9.377-4.567-21.535-4.76-41.954-.667l-82.447 16.522c-13.993 2.804-24.892 10.682-29.899 21.612-1.252 2.732-2.33 6.076-2.841 10.026-7.865-2.533-15.488-1.796-21.82.026-20.407 5.864-37.901 11.121-54.819 16.205-18.196 5.468-37.013 11.122-59.094 17.415-22.189 6.322-38.47 30.702-35.551 53.238 1.279 9.879 2.565 19.591 3.933 29.69.741 5.473 5.783 9.305 11.252 8.568 5.473-.741 9.309-5.778 8.568-11.251-1.362-10.061-2.645-19.735-3.919-29.576-1.63-12.589 8.671-27.865 21.197-31.435 22.22-6.332 41.105-12.007 59.369-17.495 16.861-5.066 34.297-10.306 54.587-16.137 7.347-2.11 15.402-1.869 24.509 14.073 10.632 18.612 42.097 74.684 47.35 84.003.041.073.083.145.126.216 4.042 6.771-.133 20.122-3.667 29.647l-14.328 34.125c-.015.036-.029.072-.044.107-.002.004-.004.007-.005.011-15.623 38.591-19.851 46.848-46.279 49.392-.001 0-.002 0-.003 0l-86.516 8.268c-25.215-.106-35.718-9.65-40.05-36.312-.885-5.451-6.017-9.157-11.474-8.267-5.451.886-9.152 6.023-8.267 11.474 2.9 17.856 8.528 30.237 17.711 38.964 2.58 2.452 5.423 4.573 8.532 6.38-7.103 6.843-11.732 17.317-13.215 33.417-1.266 13.744-2.738 31.147-4.163 47.978-1.425 16.84-2.898 34.253-4.161 47.958-2.609 28.334 7.312 54.834 25.893 69.159 9.526 7.344 20.793 11.064 32.928 11.064 7.581 0 15.501-1.453 23.546-4.381l96.176-34.417c28.125-10.066 42.251-24.713 43.908-46.863 8.04 4.544 16.991 6.9 26.264 6.9 9.867 0 20.099-2.663 29.968-8.173 22.319-12.328 111.991-62.275 122.399-68.062 18.742-10.42 23.373-16.012 29.148-35.199l6.242-20.732c5.643-18.745.631-32.825-20.624-57.944zm-240.019-168.619c-5.799-10.288-7.379-18.971-4.565-25.111 3.159-6.895 11.159-9.433 15.646-10.333l82.447-16.522c14.895-2.984 24.467-3.298 29.268-.962 3.657 1.781 5.972 5.902 9.776 14.466 2.182 4.912 4.326 9.611 6.399 14.156 3.938 8.633 7.658 16.788 11.555 26.145 6.965 16.727 7.181 31.443.641 43.738l-1.022 1.93c-6.541 12.359-13.285 25.091-26.437 28.937-1.784.325-3.631.689-5.565 1.099l-.105.022c-.003.001-.007.001-.01.002l-48.135 10.211c-13.506 2.864-20.703-1.394-22.783-4.2-5.15-9.14-36.443-64.904-47.11-83.578zm-4.025 379.861-96.228 34.435c-14.514 5.283-27.471 4-37.473-3.711-13.006-10.026-20.145-30.235-18.188-51.485 1.27-13.778 2.746-31.229 4.174-48.105 1.422-16.794 2.892-34.16 4.15-47.83 1.989-21.599 8.46-25.642 28.22-27.531l.058-.006c.008-.001.015-.001.023-.002l86.972-8.312h.004.002.005c2.691-.257 5.156-.396 7.428-.396 16.245 0 22.47 7.139 28.701 29.491l19.812 71.061c8.209 29.626 1.746 41.868-27.66 52.391zm245.517-159.062-6.241 20.731c-4.08 13.551-5.021 15.313-19.717 23.483-10.411 5.788-100.063 55.725-122.391 68.057-19.349 10.804-39.087 5.936-50.623-12.34l-19.302-69.233c-4.128-22.981-6.506-50.624 5.99-82.561.447-1.101.899-2.217 1.358-3.351l14.399-34.297c6.355-15.138 12.878-20.509 29.077-23.947l47.955-10.173c2.407-.313 4.692-.773 6.857-1.368 19.421-3.518 23.193-.181 37.36 16.561l58.537 69.175c20.048 23.694 19.422 30.356 16.741 39.263z" data-original="#000000" class="active-path" data-old_color="#000000" fill="#FFFFFF"/><path d="m185.484 179.809c0-19.299-15.701-35-35-35s-35 15.701-35 35 15.701 35 35 35 35-15.701 35-35zm-50 0c0-8.271 6.729-15 15-15s15 6.729 15 15-6.729 15-15 15-15-6.729-15-15z" data-original="#000000" class="active-path" data-old_color="#000000" fill="#FFFFFF"/><path d="m158.506 364.232c-17.921 0-32.5 14.58-32.5 32.5s14.579 32.5 32.5 32.5 32.5-14.58 32.5-32.5-14.579-32.5-32.5-32.5zm0 45c-6.893 0-12.5-5.607-12.5-12.5s5.607-12.5 12.5-12.5 12.5 5.607 12.5 12.5-5.607 12.5-12.5 12.5z" data-original="#000000" class="active-path" data-old_color="#000000" fill="#FFFFFF"/><path d="m362.378 252.899c-19.299 0-34.999 15.701-34.999 35s15.7 35 34.999 35c19.3 0 35.001-15.701 35.001-35s-15.701-35-35.001-35zm0 49.999c-8.271 0-14.999-6.729-14.999-15s6.729-15 14.999-15c8.271 0 15.001 6.729 15.001 15s-6.729 15-15.001 15z" data-original="#000000" class="active-path" data-old_color="#000000" fill="#FFFFFF"/><path d="m298.198 115.92c16.542 0 30-13.458 30-30s-13.458-30-30-30c-16.543 0-30.001 13.458-30.001 30s13.458 30 30.001 30zm0-40.001c5.514 0 10 4.486 10 10s-4.486 10-10 10c-5.515 0-10.001-4.486-10.001-10s4.486-10 10.001-10z" data-original="#000000" class="active-path" data-old_color="#000000" fill="#FFFFFF"/><path d="m56.339 210.891c0-5.523-4.478-10-10-10h-.007c-5.522 0-9.996 4.477-9.996 10s4.48 10 10.003 10 10-4.477 10-10z" data-original="#000000" class="active-path" data-old_color="#000000" fill="#FFFFFF"/></g></g></g> </svg>
