<?xml version="1.0" encoding="iso-8859-1"?>
<!-- Generator: Adobe Illustrator 19.0.0, SVG Export Plug-In . SVG Version: 6.00 Build 0)  -->
<svg version="1.1" id="Capa_1" xmlns="http://www.w3.org/2000/svg" xmlns:xlink="http://www.w3.org/1999/xlink" x="0px" y="0px"
	 viewBox="0 0 512 512" style="enable-background:new 0 0 512 512;" xml:space="preserve">
<g>
	<g>
		<path d="M276,193c-5.52,0-10,4.48-10,10s4.48,10,10,10c5.52,0,10-4.48,10-10S281.52,193,276,193z"/>
	</g>
</g>
<g>
	<g>
		<path d="M236,193c-5.52,0-10,4.48-10,10s4.48,10,10,10s10-4.48,10-10S241.52,193,236,193z"/>
	</g>
</g>
<g>
	<g>
		<path d="M212.75,113h-13.5c-18.334,0-33.25,14.916-33.25,33.25v4.5c0,22.72,22.212,38.722,43.76,31.537l13.507-4.498
			C236.848,173.27,246,160.563,246,146.25C246,127.916,231.084,113,212.75,113z M216.954,158.811
			c-0.001,0.001-0.003,0.001-0.004,0.002l-13.514,4.501C194.847,166.175,186,159.801,186,150.75v-4.5
			c0-7.306,5.944-13.25,13.25-13.25h13.5c7.306,0,13.25,5.944,13.25,13.25C226,151.861,222.427,156.992,216.954,158.811z"/>
	</g>
</g>
<g>
	<g>
		<path d="M312.75,113h-13.5c-18.376,0-33.25,14.87-33.25,33.25c0,14.322,9.131,26.995,22.729,31.537l13.508,4.499
			C323.734,189.454,346,173.518,346,150.75v-4.5C346,127.916,331.084,113,312.75,113z M326,150.75
			c0,9.036-8.832,15.428-17.437,12.563c-0.001-0.001-0.002-0.001-0.003-0.001l-13.503-4.497c-5.417-1.811-9.058-6.859-9.058-12.565
			C286,138.926,291.926,133,299.25,133h13.5c7.306,0,13.25,5.944,13.25,13.25V150.75z"/>
	</g>
</g>
<g>
	<g>
		<path d="M439.419,392.83c-13.553-2.549-29.787,1.52-39.612,15.296l-70.171-32.541l70.224-31.824
			C407.259,353.861,419.03,360,432,360c22.056,0,40-17.944,40-40c0-14.571-8.021-27.751-20.358-34.721
			c0.238-1.75,0.358-3.512,0.358-5.279c0-22.056-17.944-40-40-40c-22.056,0-40,17.944-40,40c0,3.29,0.468,6.578,1.397,9.842
			L255.769,343.15l-117.263-53.337c2.726-9.937,1.505-20.44-3.695-29.558C127.686,247.762,114.347,240,100,240
			c-22.056,0-40,17.944-40,40c0,1.768,0.12,3.529,0.358,5.279C48.021,292.249,40,305.429,40,320
			c0,22.827,16.364,36.121,32.581,39.17c13.547,2.55,29.786-1.518,39.612-15.296l70.168,32.543L112.14,408.24
			C104.741,398.138,92.971,392,80,392c-22.056,0-40,17.944-40,40c0,14.571,8.021,27.751,20.358,34.721
			C60.12,468.471,60,470.232,60,472c0,22.056,17.944,40,40,40c22.056,0,40-17.944,40-40c0-3.29-0.468-6.578-1.397-9.842
			l117.628-53.307l117.264,53.336C366.505,487.666,386.305,512,412,512c22.056,0,40-17.944,40-40c0-1.768-0.12-3.529-0.358-5.279
			C463.979,459.751,472,446.571,472,432C472,409.173,455.636,395.879,439.419,392.83z M112.107,321.788
			c-2.505-1.161-5.378-1.236-7.939-0.205c-2.561,1.03-4.582,3.073-5.585,5.646c-4.416,11.332-14.772,13.703-22.307,12.286
			C68.768,338.103,60,332.146,60,320c0-8.938,6.09-16.832,14.81-19.198c2.754-0.748,5.057-2.636,6.33-5.189
			c1.273-2.553,1.395-5.528,0.335-8.178C80.496,284.99,80,282.488,80,280c0-11.028,8.972-20,20-20
			c7.181,0,13.862,3.895,17.438,10.163c3.477,6.095,3.299,13.259-0.485,19.656c-1.444,2.442-1.783,5.385-0.932,8.093
			c0.853,2.708,2.815,4.926,5.398,6.101l110.155,50.102l-25.169,11.406L112.107,321.788z M121.432,447.981
			c-5.408,2.45-7.518,9.073-4.475,14.208c2.048,3.453,3.043,6.662,3.043,9.811c0,11.028-8.972,20-20,20s-20-8.972-20-20
			c0-2.488,0.496-4.99,1.475-7.435c2.22-5.546-0.894-11.8-6.665-13.367C66.09,448.832,60,440.938,60,432c0-11.028,8.972-20,20-20
			c8.263,0,15.558,5.014,18.584,12.773c2.09,5.361,8.248,7.833,13.443,5.475c17.383-7.878,270.529-122.599,278.541-126.229
			c5.408-2.45,7.518-9.073,4.475-14.208C392.995,286.357,392,283.148,392,280c0-11.028,8.972-20,20-20s20,8.972,20,20
			c0,2.488-0.496,4.99-1.475,7.435c-1.061,2.649-0.938,5.625,0.335,8.178c1.273,2.554,3.576,4.441,6.33,5.189
			C445.91,303.168,452,311.063,452,320c0,11.028-8.972,20-20,20c-8.263,0-15.558-5.014-18.584-12.773
			c-2.086-5.352-8.234-7.833-13.444-5.475C394.247,324.346,129.507,444.322,121.432,447.981z M437.19,451.198
			c-5.766,1.566-8.886,7.814-6.665,13.367C431.504,467.01,432,469.512,432,472c0,11.028-8.972,20-20,20
			c-14.415,0-25.445-15.462-16.952-29.819c3.023-5.113,0.946-11.732-4.467-14.193l-110.153-50.102l25.164-11.404l94.301,43.73
			c5.229,2.421,11.427-0.061,13.524-5.44c4.417-11.333,14.778-13.702,22.307-12.286C443.232,413.897,452,419.854,452,432
			C452,440.938,445.91,448.832,437.19,451.198z"/>
	</g>
</g>
<g>
	<g>
		<path d="M386,113c0-34.589-13.445-63.685-38.882-84.144C323.982,10.248,291.622,0,256,0s-67.982,10.248-91.118,28.856
			C139.445,49.315,126,78.411,126,113c0,15.81,2.936,39.238,8.427,55.604C129.013,175.575,126,184.161,126,193
			c0,26.409,25.751,45.826,51.044,38.321l6.614,0.006c1.494,1.738,2.342,3.969,2.342,6.313V266c0,16.542,13.458,30,30,30h80
			c16.542,0,30-13.458,30-30v-28.99c0-2.051,0.734-3.989,2.032-5.504l7.674,0.012c7.304,2.009,13.462,1.992,20.765-0.05
			c1.298-0.157,2.539-0.565,3.661-1.189C375.685,224.406,386,209.662,386,193c0-8.839-3.013-17.425-8.427-24.396
			C383.064,152.238,386,128.81,386,113z M359.333,178.237C363.632,182.125,366,187.368,366,193c0,8.612-5.575,16.207-13.874,18.897
			c-0.026,0.009-0.053,0.018-0.08,0.026c-0.064,0.019-0.129,0.037-0.193,0.058c-8.211,2.521-10.542-0.454-14.697-0.462l-12.699-0.02
			c-0.005,0-0.011,0-0.016,0c-6.906,0-18.44,10.66-18.44,25.51V266c0,5.514-4.486,10-10,10h-10v-33c0-5.522-4.478-10-10-10
			c-5.522,0-10,4.478-10,10v33h-20v-33c0-5.522-4.478-10-10-10c-5.522,0-10,4.478-10,10v33h-10c-5.514,0-10-4.486-10-10v-28.36
			c0-15.231-11.723-26.303-18.652-26.31c-0.181,0-11.939-0.01-11.838-0.01c-5.335,0-5.611,3.441-16.307,0.365
			C151.3,208.808,146,201.318,146,193c0-5.632,2.368-10.875,6.667-14.763c3.185-2.88,4.176-7.47,2.462-11.407
			C149.415,153.699,146,129.148,146,113c0-64.243,55.247-93,110-93s110,28.757,110,93c0,16.148-3.415,40.699-9.129,53.83
			C355.157,170.767,356.148,175.357,359.333,178.237z"/>
	</g>
</g>
<g>
</g>
<g>
</g>
<g>
</g>
<g>
</g>
<g>
</g>
<g>
</g>
<g>
</g>
<g>
</g>
<g>
</g>
<g>
</g>
<g>
</g>
<g>
</g>
<g>
</g>
<g>
</g>
<g>
</g>
</svg>
